# Blender 4.1.1
# www.blender.org
mtllib pillartest.8.mtl
o Pillar
v -0.125500 0.326773 -0.125500
v -0.125500 -0.439227 -0.125500
v -0.125500 -0.439227 0.125500
v -0.125500 0.326773 0.125500
v 0.125500 0.326773 0.125500
v 0.125500 -0.439227 0.125500
v 0.125500 -0.439227 -0.125500
v 0.125500 0.326773 -0.125500
v 0.077500 0.576773 0.077500
v 0.077500 0.326773 0.077500
v 0.077500 0.326773 -0.077500
v 0.077500 0.576773 -0.077500
v -0.077500 0.576773 -0.077500
v -0.077500 0.326773 -0.077500
v -0.077500 0.326773 0.077500
v -0.077500 0.576773 0.077500
vn -0.5773 0.5774 -0.5773
vn -0.5774 -0.5774 -0.5774
vn -0.5774 -0.5774 0.5774
vn -0.5773 0.5774 0.5773
vn 0.5773 0.5774 0.5773
vn 0.5774 -0.5774 0.5774
vn 0.5774 -0.5774 -0.5774
vn 0.5773 0.5774 -0.5773
vn 0.5774 0.5774 0.5774
vn 0.3015 0.9045 0.3015
vn 0.3015 0.9045 -0.3015
vn 0.5774 0.5774 -0.5774
vn -0.5774 0.5774 -0.5774
vn -0.3015 0.9045 -0.3015
vn -0.3015 0.9045 0.3015
vn -0.5774 0.5774 0.5774
vt 0.649698 0.000000
vt 0.649698 0.660915
vt 0.433132 0.660915
vt 0.433132 0.000000
vt 0.866264 0.000000
vt 0.866264 0.660915
vt 0.700604 0.876618
vt 0.700604 0.660915
vt 0.834340 0.660915
vt 0.834340 0.876618
vt 0.866264 0.215703
vt 0.866264 0.000000
vt 1.000000 0.000000
vt 1.000000 0.215703
vt 0.433132 0.876618
vt 0.433132 0.660915
vt 0.566868 0.660915
vt 0.566868 0.876618
vt 0.566868 0.876618
vt 0.566868 0.660915
vt 0.700604 0.660915
vt 0.700604 0.876618
vt 0.216566 0.877481
vt 0.000000 0.877481
vt 0.041415 0.836066
vt 0.175151 0.836066
vt 0.000000 0.660915
vt 0.041415 0.702330
vt 0.175151 0.702330
vt 0.216566 0.660915
vt 1.000000 0.349439
vt 0.866264 0.349439
vt 0.433132 0.877481
vt 0.433132 0.660915
vt 0.000000 0.660915
vt 0.000000 0.000000
vt 0.216566 0.000000
vt 0.216566 0.660915
vt 0.216566 0.660915
vt 0.216566 0.000000
vt 0.433132 0.000000
vt 0.433132 0.660915
s 1
usemtl Material.001
f 8/1/8 7/2/7 2/3/2 1/4/1
f 4/5/4 3/6/3 6/2/6 5/1/5
f 10/7/10 9/8/9 16/9/16 15/10/15
f 14/11/14 13/12/13 12/13/12 11/14/11
f 11/15/11 12/16/12 9/17/9 10/18/10
f 15/19/15 16/20/16 13/21/13 14/22/14
f 8/23/8 1/24/1 14/25/14 11/26/11
f 1/24/1 4/27/4 15/28/15 14/25/14
f 8/23/8 11/26/11 10/29/10 5/30/5
f 5/30/5 10/29/10 15/28/15 4/27/4
f 16/11/16 9/14/9 12/31/12 13/32/13
f 2/33/2 7/23/7 6/30/6 3/34/3
f 3/35/3 4/36/4 1/37/1 2/38/2
f 7/39/7 8/40/8 5/41/5 6/42/6
