# Blender 4.1.1
# www.blender.org
mtllib SmallWall.mtl
o SmallWall_(2)
v 0.098200 0.508000 0.083000
v 0.098200 -0.508000 0.083000
v 0.098200 -0.508000 -0.083000
v 0.098200 0.508000 -0.083000
v -0.098200 0.508000 -0.083000
v -0.098200 -0.508000 -0.083000
v -0.098200 -0.508000 0.083000
v -0.098200 0.508000 0.083000
vn 0.5774 0.5774 0.5774
vn 0.5774 -0.5774 0.5774
vn 0.5774 -0.5774 -0.5774
vn 0.5774 0.5774 -0.5774
vn -0.5774 0.5774 -0.5774
vn -0.5774 -0.5774 -0.5774
vn -0.5774 -0.5774 0.5774
vn -0.5774 0.5774 0.5774
vt 0.193307 1.000000
vt 0.193307 0.000000
vt 0.386614 0.000000
vt 0.386614 1.000000
vt 0.876772 -0.000000
vt 0.876772 0.193307
vt 0.713386 0.193307
vt 0.713386 -0.000000
vt 0.386614 1.000000
vt 0.386614 0.000000
vt 0.550000 0.000000
vt 0.550000 1.000000
vt 0.550000 1.000000
vt 0.550000 -0.000000
vt 0.713386 -0.000000
vt 0.713386 1.000000
vt 0.713386 0.386614
vt 0.713386 0.193307
vt 0.876772 0.193307
vt 0.876772 0.386614
vt -0.000000 1.000000
vt 0.000000 0.000000
vt 0.193307 0.000000
vt 0.193307 1.000000
s 1
f 6/1/6 5/2/5 4/3/4 3/4/3
f 6/5/6 3/6/3 2/7/2 7/8/7
f 3/9/3 4/10/4 1/11/1 2/12/2
f 7/13/7 8/14/8 5/15/5 6/16/6
f 8/17/8 1/18/1 4/19/4 5/20/5
f 2/21/2 1/22/1 8/23/8 7/24/7
